%TF.GenerationSoftware,KiCad,Pcbnew,8.0.4*%
%TF.CreationDate,2025-01-23T20:50:56-05:00*%
%TF.ProjectId,pwm_power,70776d5f-706f-4776-9572-2e6b69636164,1*%
%TF.SameCoordinates,Original*%
%TF.FileFunction,Drillmap*%
%TF.FilePolarity,Positive*%
%FSLAX45Y45*%
G04 Gerber Fmt 4.5, Leading zero omitted, Abs format (unit mm)*
G04 Created by KiCad (PCBNEW 8.0.4) date 2025-01-23 20:50:56*
%MOMM*%
%LPD*%
G01*
G04 APERTURE LIST*
%ADD10C,0.050000*%
%ADD11C,0.200000*%
%ADD12C,0.100000*%
G04 APERTURE END LIST*
D10*
X6731000Y-2272000D02*
X6223000Y-2272000D01*
X6223000Y-2272000D02*
X6223000Y-5853000D01*
X6733000Y-5854000D02*
X6731000Y-2272000D01*
X6223000Y-5853000D02*
X6733000Y-5854000D01*
D11*
D12*
X6300000Y-2363000D02*
X6400000Y-2463000D01*
X6400000Y-2363000D02*
X6300000Y-2463000D01*
X6300000Y-2617000D02*
X6400000Y-2717000D01*
X6400000Y-2617000D02*
X6300000Y-2717000D01*
X6300000Y-2871000D02*
X6400000Y-2971000D01*
X6400000Y-2871000D02*
X6300000Y-2971000D01*
X6300000Y-3125000D02*
X6400000Y-3225000D01*
X6400000Y-3125000D02*
X6300000Y-3225000D01*
X6300000Y-3379000D02*
X6400000Y-3479000D01*
X6400000Y-3379000D02*
X6300000Y-3479000D01*
X6300000Y-3633000D02*
X6400000Y-3733000D01*
X6400000Y-3633000D02*
X6300000Y-3733000D01*
X6300000Y-3887000D02*
X6400000Y-3987000D01*
X6400000Y-3887000D02*
X6300000Y-3987000D01*
X6300000Y-4141000D02*
X6400000Y-4241000D01*
X6400000Y-4141000D02*
X6300000Y-4241000D01*
X6300000Y-4395000D02*
X6400000Y-4495000D01*
X6400000Y-4395000D02*
X6300000Y-4495000D01*
X6300000Y-4649000D02*
X6400000Y-4749000D01*
X6400000Y-4649000D02*
X6300000Y-4749000D01*
X6300000Y-4903000D02*
X6400000Y-5003000D01*
X6400000Y-4903000D02*
X6300000Y-5003000D01*
X6300000Y-5157000D02*
X6400000Y-5257000D01*
X6400000Y-5157000D02*
X6300000Y-5257000D01*
X6300000Y-5411000D02*
X6400000Y-5511000D01*
X6400000Y-5411000D02*
X6300000Y-5511000D01*
X6300000Y-5665000D02*
X6400000Y-5765000D01*
X6400000Y-5665000D02*
X6300000Y-5765000D01*
X6554000Y-2363000D02*
X6654000Y-2463000D01*
X6654000Y-2363000D02*
X6554000Y-2463000D01*
X6554000Y-2617000D02*
X6654000Y-2717000D01*
X6654000Y-2617000D02*
X6554000Y-2717000D01*
X6554000Y-2871000D02*
X6654000Y-2971000D01*
X6654000Y-2871000D02*
X6554000Y-2971000D01*
X6554000Y-3125000D02*
X6654000Y-3225000D01*
X6654000Y-3125000D02*
X6554000Y-3225000D01*
X6554000Y-3379000D02*
X6654000Y-3479000D01*
X6654000Y-3379000D02*
X6554000Y-3479000D01*
X6554000Y-3633000D02*
X6654000Y-3733000D01*
X6654000Y-3633000D02*
X6554000Y-3733000D01*
X6554000Y-3887000D02*
X6654000Y-3987000D01*
X6654000Y-3887000D02*
X6554000Y-3987000D01*
X6554000Y-4141000D02*
X6654000Y-4241000D01*
X6654000Y-4141000D02*
X6554000Y-4241000D01*
X6554000Y-4395000D02*
X6654000Y-4495000D01*
X6654000Y-4395000D02*
X6554000Y-4495000D01*
X6554000Y-4649000D02*
X6654000Y-4749000D01*
X6654000Y-4649000D02*
X6554000Y-4749000D01*
X6554000Y-4903000D02*
X6654000Y-5003000D01*
X6654000Y-4903000D02*
X6554000Y-5003000D01*
X6554000Y-5157000D02*
X6654000Y-5257000D01*
X6654000Y-5157000D02*
X6554000Y-5257000D01*
X6554000Y-5411000D02*
X6654000Y-5511000D01*
X6654000Y-5411000D02*
X6554000Y-5511000D01*
X6554000Y-5665000D02*
X6654000Y-5765000D01*
X6654000Y-5665000D02*
X6554000Y-5765000D01*
D11*
X6481277Y-6167984D02*
X6481277Y-5967984D01*
X6481277Y-5967984D02*
X6528896Y-5967984D01*
X6528896Y-5967984D02*
X6557467Y-5977508D01*
X6557467Y-5977508D02*
X6576515Y-5996555D01*
X6576515Y-5996555D02*
X6586039Y-6015603D01*
X6586039Y-6015603D02*
X6595562Y-6053698D01*
X6595562Y-6053698D02*
X6595562Y-6082269D01*
X6595562Y-6082269D02*
X6586039Y-6120365D01*
X6586039Y-6120365D02*
X6576515Y-6139412D01*
X6576515Y-6139412D02*
X6557467Y-6158460D01*
X6557467Y-6158460D02*
X6528896Y-6167984D01*
X6528896Y-6167984D02*
X6481277Y-6167984D01*
X6681277Y-6167984D02*
X6681277Y-6034650D01*
X6681277Y-6072746D02*
X6690801Y-6053698D01*
X6690801Y-6053698D02*
X6700324Y-6044174D01*
X6700324Y-6044174D02*
X6719372Y-6034650D01*
X6719372Y-6034650D02*
X6738420Y-6034650D01*
X6805086Y-6167984D02*
X6805086Y-6034650D01*
X6805086Y-5967984D02*
X6795562Y-5977508D01*
X6795562Y-5977508D02*
X6805086Y-5987031D01*
X6805086Y-5987031D02*
X6814610Y-5977508D01*
X6814610Y-5977508D02*
X6805086Y-5967984D01*
X6805086Y-5967984D02*
X6805086Y-5987031D01*
X6928896Y-6167984D02*
X6909848Y-6158460D01*
X6909848Y-6158460D02*
X6900324Y-6139412D01*
X6900324Y-6139412D02*
X6900324Y-5967984D01*
X7033658Y-6167984D02*
X7014610Y-6158460D01*
X7014610Y-6158460D02*
X7005086Y-6139412D01*
X7005086Y-6139412D02*
X7005086Y-5967984D01*
X7262229Y-6167984D02*
X7262229Y-5967984D01*
X7262229Y-5967984D02*
X7328896Y-6110841D01*
X7328896Y-6110841D02*
X7395562Y-5967984D01*
X7395562Y-5967984D02*
X7395562Y-6167984D01*
X7576515Y-6167984D02*
X7576515Y-6063222D01*
X7576515Y-6063222D02*
X7566991Y-6044174D01*
X7566991Y-6044174D02*
X7547943Y-6034650D01*
X7547943Y-6034650D02*
X7509848Y-6034650D01*
X7509848Y-6034650D02*
X7490801Y-6044174D01*
X7576515Y-6158460D02*
X7557467Y-6167984D01*
X7557467Y-6167984D02*
X7509848Y-6167984D01*
X7509848Y-6167984D02*
X7490801Y-6158460D01*
X7490801Y-6158460D02*
X7481277Y-6139412D01*
X7481277Y-6139412D02*
X7481277Y-6120365D01*
X7481277Y-6120365D02*
X7490801Y-6101317D01*
X7490801Y-6101317D02*
X7509848Y-6091793D01*
X7509848Y-6091793D02*
X7557467Y-6091793D01*
X7557467Y-6091793D02*
X7576515Y-6082269D01*
X7671753Y-6034650D02*
X7671753Y-6234650D01*
X7671753Y-6044174D02*
X7690801Y-6034650D01*
X7690801Y-6034650D02*
X7728896Y-6034650D01*
X7728896Y-6034650D02*
X7747943Y-6044174D01*
X7747943Y-6044174D02*
X7757467Y-6053698D01*
X7757467Y-6053698D02*
X7766991Y-6072746D01*
X7766991Y-6072746D02*
X7766991Y-6129888D01*
X7766991Y-6129888D02*
X7757467Y-6148936D01*
X7757467Y-6148936D02*
X7747943Y-6158460D01*
X7747943Y-6158460D02*
X7728896Y-6167984D01*
X7728896Y-6167984D02*
X7690801Y-6167984D01*
X7690801Y-6167984D02*
X7671753Y-6158460D01*
X7852705Y-6148936D02*
X7862229Y-6158460D01*
X7862229Y-6158460D02*
X7852705Y-6167984D01*
X7852705Y-6167984D02*
X7843182Y-6158460D01*
X7843182Y-6158460D02*
X7852705Y-6148936D01*
X7852705Y-6148936D02*
X7852705Y-6167984D01*
X7852705Y-6044174D02*
X7862229Y-6053698D01*
X7862229Y-6053698D02*
X7852705Y-6063222D01*
X7852705Y-6063222D02*
X7843182Y-6053698D01*
X7843182Y-6053698D02*
X7852705Y-6044174D01*
X7852705Y-6044174D02*
X7852705Y-6063222D01*
D12*
X6120500Y-6446500D02*
X6220500Y-6546500D01*
X6220500Y-6446500D02*
X6120500Y-6546500D01*
D11*
X6586039Y-6587984D02*
X6471753Y-6587984D01*
X6528896Y-6587984D02*
X6528896Y-6387984D01*
X6528896Y-6387984D02*
X6509848Y-6416555D01*
X6509848Y-6416555D02*
X6490801Y-6435603D01*
X6490801Y-6435603D02*
X6471753Y-6445127D01*
X6671753Y-6568936D02*
X6681277Y-6578460D01*
X6681277Y-6578460D02*
X6671753Y-6587984D01*
X6671753Y-6587984D02*
X6662229Y-6578460D01*
X6662229Y-6578460D02*
X6671753Y-6568936D01*
X6671753Y-6568936D02*
X6671753Y-6587984D01*
X6805086Y-6387984D02*
X6824134Y-6387984D01*
X6824134Y-6387984D02*
X6843182Y-6397508D01*
X6843182Y-6397508D02*
X6852705Y-6407031D01*
X6852705Y-6407031D02*
X6862229Y-6426079D01*
X6862229Y-6426079D02*
X6871753Y-6464174D01*
X6871753Y-6464174D02*
X6871753Y-6511793D01*
X6871753Y-6511793D02*
X6862229Y-6549888D01*
X6862229Y-6549888D02*
X6852705Y-6568936D01*
X6852705Y-6568936D02*
X6843182Y-6578460D01*
X6843182Y-6578460D02*
X6824134Y-6587984D01*
X6824134Y-6587984D02*
X6805086Y-6587984D01*
X6805086Y-6587984D02*
X6786039Y-6578460D01*
X6786039Y-6578460D02*
X6776515Y-6568936D01*
X6776515Y-6568936D02*
X6766991Y-6549888D01*
X6766991Y-6549888D02*
X6757467Y-6511793D01*
X6757467Y-6511793D02*
X6757467Y-6464174D01*
X6757467Y-6464174D02*
X6766991Y-6426079D01*
X6766991Y-6426079D02*
X6776515Y-6407031D01*
X6776515Y-6407031D02*
X6786039Y-6397508D01*
X6786039Y-6397508D02*
X6805086Y-6387984D01*
X6995562Y-6387984D02*
X7014610Y-6387984D01*
X7014610Y-6387984D02*
X7033658Y-6397508D01*
X7033658Y-6397508D02*
X7043182Y-6407031D01*
X7043182Y-6407031D02*
X7052705Y-6426079D01*
X7052705Y-6426079D02*
X7062229Y-6464174D01*
X7062229Y-6464174D02*
X7062229Y-6511793D01*
X7062229Y-6511793D02*
X7052705Y-6549888D01*
X7052705Y-6549888D02*
X7043182Y-6568936D01*
X7043182Y-6568936D02*
X7033658Y-6578460D01*
X7033658Y-6578460D02*
X7014610Y-6587984D01*
X7014610Y-6587984D02*
X6995562Y-6587984D01*
X6995562Y-6587984D02*
X6976515Y-6578460D01*
X6976515Y-6578460D02*
X6966991Y-6568936D01*
X6966991Y-6568936D02*
X6957467Y-6549888D01*
X6957467Y-6549888D02*
X6947943Y-6511793D01*
X6947943Y-6511793D02*
X6947943Y-6464174D01*
X6947943Y-6464174D02*
X6957467Y-6426079D01*
X6957467Y-6426079D02*
X6966991Y-6407031D01*
X6966991Y-6407031D02*
X6976515Y-6397508D01*
X6976515Y-6397508D02*
X6995562Y-6387984D01*
X7186039Y-6387984D02*
X7205086Y-6387984D01*
X7205086Y-6387984D02*
X7224134Y-6397508D01*
X7224134Y-6397508D02*
X7233658Y-6407031D01*
X7233658Y-6407031D02*
X7243182Y-6426079D01*
X7243182Y-6426079D02*
X7252705Y-6464174D01*
X7252705Y-6464174D02*
X7252705Y-6511793D01*
X7252705Y-6511793D02*
X7243182Y-6549888D01*
X7243182Y-6549888D02*
X7233658Y-6568936D01*
X7233658Y-6568936D02*
X7224134Y-6578460D01*
X7224134Y-6578460D02*
X7205086Y-6587984D01*
X7205086Y-6587984D02*
X7186039Y-6587984D01*
X7186039Y-6587984D02*
X7166991Y-6578460D01*
X7166991Y-6578460D02*
X7157467Y-6568936D01*
X7157467Y-6568936D02*
X7147943Y-6549888D01*
X7147943Y-6549888D02*
X7138420Y-6511793D01*
X7138420Y-6511793D02*
X7138420Y-6464174D01*
X7138420Y-6464174D02*
X7147943Y-6426079D01*
X7147943Y-6426079D02*
X7157467Y-6407031D01*
X7157467Y-6407031D02*
X7166991Y-6397508D01*
X7166991Y-6397508D02*
X7186039Y-6387984D01*
X7338420Y-6587984D02*
X7338420Y-6454650D01*
X7338420Y-6473698D02*
X7347943Y-6464174D01*
X7347943Y-6464174D02*
X7366991Y-6454650D01*
X7366991Y-6454650D02*
X7395563Y-6454650D01*
X7395563Y-6454650D02*
X7414610Y-6464174D01*
X7414610Y-6464174D02*
X7424134Y-6483222D01*
X7424134Y-6483222D02*
X7424134Y-6587984D01*
X7424134Y-6483222D02*
X7433658Y-6464174D01*
X7433658Y-6464174D02*
X7452705Y-6454650D01*
X7452705Y-6454650D02*
X7481277Y-6454650D01*
X7481277Y-6454650D02*
X7500324Y-6464174D01*
X7500324Y-6464174D02*
X7509848Y-6483222D01*
X7509848Y-6483222D02*
X7509848Y-6587984D01*
X7605086Y-6587984D02*
X7605086Y-6454650D01*
X7605086Y-6473698D02*
X7614610Y-6464174D01*
X7614610Y-6464174D02*
X7633658Y-6454650D01*
X7633658Y-6454650D02*
X7662229Y-6454650D01*
X7662229Y-6454650D02*
X7681277Y-6464174D01*
X7681277Y-6464174D02*
X7690801Y-6483222D01*
X7690801Y-6483222D02*
X7690801Y-6587984D01*
X7690801Y-6483222D02*
X7700324Y-6464174D01*
X7700324Y-6464174D02*
X7719372Y-6454650D01*
X7719372Y-6454650D02*
X7747943Y-6454650D01*
X7747943Y-6454650D02*
X7766991Y-6464174D01*
X7766991Y-6464174D02*
X7776515Y-6483222D01*
X7776515Y-6483222D02*
X7776515Y-6587984D01*
X8166991Y-6378460D02*
X7995563Y-6635603D01*
X8424134Y-6387984D02*
X8443182Y-6387984D01*
X8443182Y-6387984D02*
X8462229Y-6397508D01*
X8462229Y-6397508D02*
X8471753Y-6407031D01*
X8471753Y-6407031D02*
X8481277Y-6426079D01*
X8481277Y-6426079D02*
X8490801Y-6464174D01*
X8490801Y-6464174D02*
X8490801Y-6511793D01*
X8490801Y-6511793D02*
X8481277Y-6549888D01*
X8481277Y-6549888D02*
X8471753Y-6568936D01*
X8471753Y-6568936D02*
X8462229Y-6578460D01*
X8462229Y-6578460D02*
X8443182Y-6587984D01*
X8443182Y-6587984D02*
X8424134Y-6587984D01*
X8424134Y-6587984D02*
X8405087Y-6578460D01*
X8405087Y-6578460D02*
X8395563Y-6568936D01*
X8395563Y-6568936D02*
X8386039Y-6549888D01*
X8386039Y-6549888D02*
X8376515Y-6511793D01*
X8376515Y-6511793D02*
X8376515Y-6464174D01*
X8376515Y-6464174D02*
X8386039Y-6426079D01*
X8386039Y-6426079D02*
X8395563Y-6407031D01*
X8395563Y-6407031D02*
X8405087Y-6397508D01*
X8405087Y-6397508D02*
X8424134Y-6387984D01*
X8576515Y-6568936D02*
X8586039Y-6578460D01*
X8586039Y-6578460D02*
X8576515Y-6587984D01*
X8576515Y-6587984D02*
X8566991Y-6578460D01*
X8566991Y-6578460D02*
X8576515Y-6568936D01*
X8576515Y-6568936D02*
X8576515Y-6587984D01*
X8709848Y-6387984D02*
X8728896Y-6387984D01*
X8728896Y-6387984D02*
X8747944Y-6397508D01*
X8747944Y-6397508D02*
X8757468Y-6407031D01*
X8757468Y-6407031D02*
X8766991Y-6426079D01*
X8766991Y-6426079D02*
X8776515Y-6464174D01*
X8776515Y-6464174D02*
X8776515Y-6511793D01*
X8776515Y-6511793D02*
X8766991Y-6549888D01*
X8766991Y-6549888D02*
X8757468Y-6568936D01*
X8757468Y-6568936D02*
X8747944Y-6578460D01*
X8747944Y-6578460D02*
X8728896Y-6587984D01*
X8728896Y-6587984D02*
X8709848Y-6587984D01*
X8709848Y-6587984D02*
X8690801Y-6578460D01*
X8690801Y-6578460D02*
X8681277Y-6568936D01*
X8681277Y-6568936D02*
X8671753Y-6549888D01*
X8671753Y-6549888D02*
X8662229Y-6511793D01*
X8662229Y-6511793D02*
X8662229Y-6464174D01*
X8662229Y-6464174D02*
X8671753Y-6426079D01*
X8671753Y-6426079D02*
X8681277Y-6407031D01*
X8681277Y-6407031D02*
X8690801Y-6397508D01*
X8690801Y-6397508D02*
X8709848Y-6387984D01*
X8843182Y-6387984D02*
X8966991Y-6387984D01*
X8966991Y-6387984D02*
X8900325Y-6464174D01*
X8900325Y-6464174D02*
X8928896Y-6464174D01*
X8928896Y-6464174D02*
X8947944Y-6473698D01*
X8947944Y-6473698D02*
X8957468Y-6483222D01*
X8957468Y-6483222D02*
X8966991Y-6502269D01*
X8966991Y-6502269D02*
X8966991Y-6549888D01*
X8966991Y-6549888D02*
X8957468Y-6568936D01*
X8957468Y-6568936D02*
X8947944Y-6578460D01*
X8947944Y-6578460D02*
X8928896Y-6587984D01*
X8928896Y-6587984D02*
X8871753Y-6587984D01*
X8871753Y-6587984D02*
X8852706Y-6578460D01*
X8852706Y-6578460D02*
X8843182Y-6568936D01*
X9062229Y-6587984D02*
X9100325Y-6587984D01*
X9100325Y-6587984D02*
X9119372Y-6578460D01*
X9119372Y-6578460D02*
X9128896Y-6568936D01*
X9128896Y-6568936D02*
X9147944Y-6540365D01*
X9147944Y-6540365D02*
X9157468Y-6502269D01*
X9157468Y-6502269D02*
X9157468Y-6426079D01*
X9157468Y-6426079D02*
X9147944Y-6407031D01*
X9147944Y-6407031D02*
X9138420Y-6397508D01*
X9138420Y-6397508D02*
X9119372Y-6387984D01*
X9119372Y-6387984D02*
X9081277Y-6387984D01*
X9081277Y-6387984D02*
X9062229Y-6397508D01*
X9062229Y-6397508D02*
X9052706Y-6407031D01*
X9052706Y-6407031D02*
X9043182Y-6426079D01*
X9043182Y-6426079D02*
X9043182Y-6473698D01*
X9043182Y-6473698D02*
X9052706Y-6492746D01*
X9052706Y-6492746D02*
X9062229Y-6502269D01*
X9062229Y-6502269D02*
X9081277Y-6511793D01*
X9081277Y-6511793D02*
X9119372Y-6511793D01*
X9119372Y-6511793D02*
X9138420Y-6502269D01*
X9138420Y-6502269D02*
X9147944Y-6492746D01*
X9147944Y-6492746D02*
X9157468Y-6473698D01*
X9328896Y-6454650D02*
X9328896Y-6587984D01*
X9281277Y-6378460D02*
X9233658Y-6521317D01*
X9233658Y-6521317D02*
X9357468Y-6521317D01*
X9424134Y-6387984D02*
X9424134Y-6426079D01*
X9500325Y-6387984D02*
X9500325Y-6426079D01*
X9795563Y-6664174D02*
X9786039Y-6654650D01*
X9786039Y-6654650D02*
X9766991Y-6626079D01*
X9766991Y-6626079D02*
X9757468Y-6607031D01*
X9757468Y-6607031D02*
X9747944Y-6578460D01*
X9747944Y-6578460D02*
X9738420Y-6530841D01*
X9738420Y-6530841D02*
X9738420Y-6492746D01*
X9738420Y-6492746D02*
X9747944Y-6445127D01*
X9747944Y-6445127D02*
X9757468Y-6416555D01*
X9757468Y-6416555D02*
X9766991Y-6397508D01*
X9766991Y-6397508D02*
X9786039Y-6368936D01*
X9786039Y-6368936D02*
X9795563Y-6359412D01*
X9862230Y-6407031D02*
X9871753Y-6397508D01*
X9871753Y-6397508D02*
X9890801Y-6387984D01*
X9890801Y-6387984D02*
X9938420Y-6387984D01*
X9938420Y-6387984D02*
X9957468Y-6397508D01*
X9957468Y-6397508D02*
X9966991Y-6407031D01*
X9966991Y-6407031D02*
X9976515Y-6426079D01*
X9976515Y-6426079D02*
X9976515Y-6445127D01*
X9976515Y-6445127D02*
X9966991Y-6473698D01*
X9966991Y-6473698D02*
X9852706Y-6587984D01*
X9852706Y-6587984D02*
X9976515Y-6587984D01*
X10090801Y-6473698D02*
X10071753Y-6464174D01*
X10071753Y-6464174D02*
X10062230Y-6454650D01*
X10062230Y-6454650D02*
X10052706Y-6435603D01*
X10052706Y-6435603D02*
X10052706Y-6426079D01*
X10052706Y-6426079D02*
X10062230Y-6407031D01*
X10062230Y-6407031D02*
X10071753Y-6397508D01*
X10071753Y-6397508D02*
X10090801Y-6387984D01*
X10090801Y-6387984D02*
X10128896Y-6387984D01*
X10128896Y-6387984D02*
X10147944Y-6397508D01*
X10147944Y-6397508D02*
X10157468Y-6407031D01*
X10157468Y-6407031D02*
X10166991Y-6426079D01*
X10166991Y-6426079D02*
X10166991Y-6435603D01*
X10166991Y-6435603D02*
X10157468Y-6454650D01*
X10157468Y-6454650D02*
X10147944Y-6464174D01*
X10147944Y-6464174D02*
X10128896Y-6473698D01*
X10128896Y-6473698D02*
X10090801Y-6473698D01*
X10090801Y-6473698D02*
X10071753Y-6483222D01*
X10071753Y-6483222D02*
X10062230Y-6492746D01*
X10062230Y-6492746D02*
X10052706Y-6511793D01*
X10052706Y-6511793D02*
X10052706Y-6549888D01*
X10052706Y-6549888D02*
X10062230Y-6568936D01*
X10062230Y-6568936D02*
X10071753Y-6578460D01*
X10071753Y-6578460D02*
X10090801Y-6587984D01*
X10090801Y-6587984D02*
X10128896Y-6587984D01*
X10128896Y-6587984D02*
X10147944Y-6578460D01*
X10147944Y-6578460D02*
X10157468Y-6568936D01*
X10157468Y-6568936D02*
X10166991Y-6549888D01*
X10166991Y-6549888D02*
X10166991Y-6511793D01*
X10166991Y-6511793D02*
X10157468Y-6492746D01*
X10157468Y-6492746D02*
X10147944Y-6483222D01*
X10147944Y-6483222D02*
X10128896Y-6473698D01*
X10405087Y-6587984D02*
X10405087Y-6387984D01*
X10490801Y-6587984D02*
X10490801Y-6483222D01*
X10490801Y-6483222D02*
X10481277Y-6464174D01*
X10481277Y-6464174D02*
X10462230Y-6454650D01*
X10462230Y-6454650D02*
X10433658Y-6454650D01*
X10433658Y-6454650D02*
X10414611Y-6464174D01*
X10414611Y-6464174D02*
X10405087Y-6473698D01*
X10614611Y-6587984D02*
X10595563Y-6578460D01*
X10595563Y-6578460D02*
X10586039Y-6568936D01*
X10586039Y-6568936D02*
X10576515Y-6549888D01*
X10576515Y-6549888D02*
X10576515Y-6492746D01*
X10576515Y-6492746D02*
X10586039Y-6473698D01*
X10586039Y-6473698D02*
X10595563Y-6464174D01*
X10595563Y-6464174D02*
X10614611Y-6454650D01*
X10614611Y-6454650D02*
X10643182Y-6454650D01*
X10643182Y-6454650D02*
X10662230Y-6464174D01*
X10662230Y-6464174D02*
X10671753Y-6473698D01*
X10671753Y-6473698D02*
X10681277Y-6492746D01*
X10681277Y-6492746D02*
X10681277Y-6549888D01*
X10681277Y-6549888D02*
X10671753Y-6568936D01*
X10671753Y-6568936D02*
X10662230Y-6578460D01*
X10662230Y-6578460D02*
X10643182Y-6587984D01*
X10643182Y-6587984D02*
X10614611Y-6587984D01*
X10795563Y-6587984D02*
X10776515Y-6578460D01*
X10776515Y-6578460D02*
X10766992Y-6559412D01*
X10766992Y-6559412D02*
X10766992Y-6387984D01*
X10947944Y-6578460D02*
X10928896Y-6587984D01*
X10928896Y-6587984D02*
X10890801Y-6587984D01*
X10890801Y-6587984D02*
X10871753Y-6578460D01*
X10871753Y-6578460D02*
X10862230Y-6559412D01*
X10862230Y-6559412D02*
X10862230Y-6483222D01*
X10862230Y-6483222D02*
X10871753Y-6464174D01*
X10871753Y-6464174D02*
X10890801Y-6454650D01*
X10890801Y-6454650D02*
X10928896Y-6454650D01*
X10928896Y-6454650D02*
X10947944Y-6464174D01*
X10947944Y-6464174D02*
X10957468Y-6483222D01*
X10957468Y-6483222D02*
X10957468Y-6502269D01*
X10957468Y-6502269D02*
X10862230Y-6521317D01*
X11033658Y-6578460D02*
X11052706Y-6587984D01*
X11052706Y-6587984D02*
X11090801Y-6587984D01*
X11090801Y-6587984D02*
X11109849Y-6578460D01*
X11109849Y-6578460D02*
X11119373Y-6559412D01*
X11119373Y-6559412D02*
X11119373Y-6549888D01*
X11119373Y-6549888D02*
X11109849Y-6530841D01*
X11109849Y-6530841D02*
X11090801Y-6521317D01*
X11090801Y-6521317D02*
X11062230Y-6521317D01*
X11062230Y-6521317D02*
X11043182Y-6511793D01*
X11043182Y-6511793D02*
X11033658Y-6492746D01*
X11033658Y-6492746D02*
X11033658Y-6483222D01*
X11033658Y-6483222D02*
X11043182Y-6464174D01*
X11043182Y-6464174D02*
X11062230Y-6454650D01*
X11062230Y-6454650D02*
X11090801Y-6454650D01*
X11090801Y-6454650D02*
X11109849Y-6464174D01*
X11186039Y-6664174D02*
X11195563Y-6654650D01*
X11195563Y-6654650D02*
X11214611Y-6626079D01*
X11214611Y-6626079D02*
X11224134Y-6607031D01*
X11224134Y-6607031D02*
X11233658Y-6578460D01*
X11233658Y-6578460D02*
X11243182Y-6530841D01*
X11243182Y-6530841D02*
X11243182Y-6492746D01*
X11243182Y-6492746D02*
X11233658Y-6445127D01*
X11233658Y-6445127D02*
X11224134Y-6416555D01*
X11224134Y-6416555D02*
X11214611Y-6397508D01*
X11214611Y-6397508D02*
X11195563Y-6368936D01*
X11195563Y-6368936D02*
X11186039Y-6359412D01*
M02*
